<?xml version="1.0" encoding="utf-8"?>
<!-- Generator: Adobe Illustrator 21.0.0, SVG Export Plug-In . SVG Version: 6.00 Build 0)  -->
<svg version="1.1" id="Layer_1" xmlns="http://www.w3.org/2000/svg" xmlns:xlink="http://www.w3.org/1999/xlink" x="0px" y="0px"
	 viewBox="0 0 220 50" style="enable-background:new 0 0 220 50;" xml:space="preserve">
<style type="text/css">
	.st0{fill:#FFC20E;}
	.st1{fill:#B2D235;}
	.st2{fill-rule:evenodd;clip-rule:evenodd;fill:#FFFFFF;}
	.st3{fill:#FFFFFF;}
</style>
<g>
	<g>
		<g>
			<g>
				<path class="st0" d="M23.3,49.8c2.5,0,4.6-2.1,4.6-4.6V4.8c0-2.5-2.1-4.6-4.6-4.6h-1.5c0,0-18.3,0.4-17.5,25.5
					c0.8,25.1,18.9,24,18.9,24L23.3,49.8z"/>
			</g>
			<g>
				<path class="st1" d="M36.5,49.8c-2.5,0-4.6-2.1-4.6-4.6V4.8c0-2.5,2.1-4.6,4.6-4.6h1.5c0,0,18.3,0.4,17.5,25.5
					C54.6,50.9,36.6,49.8,36.5,49.8L36.5,49.8z"/>
			</g>
			<path class="st2" d="M25.6,35c0.5-0.2,1-0.5,1.6-0.1c-0.1,0.8-0.5,1.2-1.1,1.3c0.2,0.6,1.4,0.3,1.3,1.1c0,0.5-0.7,0.2-1,0.3
				c-0.4-0.1-0.8-0.1-1.3-0.2c-0.5-0.2-0.8-0.4-1.2-0.7c0,0.2-0.1,0.5,0.1,0.5c-0.5,0.4-0.4-0.8-0.7-1.1c0.1-0.6-0.4-0.9-0.6-1.2
				c-1.6,0-3,0.5-4.2,1c-1.5,0.2-2.7,0.7-3.6,1.8c-0.1,0.4,0.6,0.2,0.6,0.6c2.8-0.2,5.5-0.5,8-1c-1.1,0.8-3.4,0.8-5.1,1.1
				c-0.6,0.1-1.3,0.3-1.8,0.2c-0.7,0-1.6-0.1-2-0.8c0.5-1.4,2.2-1.4,3.2-2.1c1.5-0.2,2.6-0.9,4-1.1c0.6,0.1,1.4,0.1,1.5,0.5
				c1-0.6,1.5-1.9,3-1.9C26.6,34.1,25.8,34.5,25.6,35z M27.1,37.1c-0.5-0.6-2.2-0.8-2.7-0.2C24.9,37.1,26.6,37.7,27.1,37.1z
				 M26.9,35c-1.3-0.2-1.9,1.4-3,0.9c0.9-0.5,1.7-1.1,2.2-2.1c-1.3,0.2-1.8,1.3-2.7,1.9c0.2,0.1,0.3,0.4,0.2,0.7
				C25.1,36.5,26.4,36.3,26.9,35z"/>
			<path class="st3" d="M49.7,12c-0.8,0.2-0.8,1.2-1.3,1.6c-0.6-1-1.1-2.7-0.6-3.9c-0.5,0.1-1.1,0-1.3,0.3c0.2,1.3,0.5,2.4,1.1,3.3
				c-0.7,0.1-1.7,0.7-1.7,0.7c0,0-0.1,0.1-0.1,0.1c-0.4,0.3-0.6,0.6-0.6,0.6c-0.3,0.6-0.2,1.7,0.1,2.2c0.2,0.5,1,1.1,1,1.1
				c0.5,0.3,2.1,1.8,4.2,1.4c0.5-0.2,0.5-0.9,1-1l1.3-0.1c0.3-0.4,0.4-0.8,0.6-1.2C53.2,14.2,51.9,12.6,49.7,12z M47.2,11.5
				c-0.4-0.1-0.3-1.3-0.2-1.5C47.6,10.3,47.2,11.2,47.2,11.5z M52.6,17.9l-1.7,0.2c0.1,0.6-0.3,0.8-0.6,1c-1.5,0.5-2.9-0.6-4-1.4
				c0,0-0.1,0-0.1-0.1c-0.3-0.2-0.4-0.3-0.6-0.8c-0.2-0.5-0.3-1.4-0.1-1.9l0,0v0c0,0,0.1-0.3,0.4-0.5c0.5-0.2,0.7-0.7,1.5-0.7
				c0.8-0.1,0.8,0.9,1.6,0.8c-0.2-1.1,0.1-1.9,0.9-2.2c1,0.3,2.6,1.6,2.9,3.1C53.1,16.2,53.3,17.3,52.6,17.9z M45.3,14.8L45.3,14.8
				L45.3,14.8L45.3,14.8z"/>
			<g>
				<path class="st2" d="M14.9,12.9c0.3,1.7-0.3,2.9-1.1,4c0.4,0.2,0.6,0.9,1,1.1c-0.2,1.1-1.2-0.4-2.1-0.1c-0.9,1.1-3.2,2.3-4.9,2
					c-3-3.6-0.4-9.8,4-10.1c0.7-0.1,1.3,0.3,2,0.5c0.3,0.6,0.7,1,1,1.8L14.9,12.9z M13.3,16.8c1.7-1.3,1.9-6.2-0.9-6.8
					c-5,0.9-5.7,4.2-5.3,8c0.4,0.6,0.8,1.3,1.4,1.6c2.2-0.5,3.7-1.3,4.2-2.7c0.1,0.7,0.6,0.7,1.1,0.6C14.2,17.4,13.4,17.1,13.3,16.8
					z"/>
				<path class="st2" d="M10.5,12c1.3,1.1-1.1,3.3,0.9,3.6c-1.6,0.8-0.8-2.2-1-3.1c-1.9-0.3-1.7,1.9-1.8,3.1c0.2,0.4,0.5,0.4,1,0.2
					c0.2,0.4-0.7,0.3-1,0.5C7.9,14.2,8.2,11.9,10.5,12z"/>
				<path class="st2" d="M12.6,15.9c0,0.5-0.3,0.9-1.1,1C11.3,16.2,12,15.7,12.6,15.9z"/>
			</g>
			<g>
				<path class="st2" d="M34.2,4.9c0.3-0.2,1.7,1,0.9,1.3C34.8,5.8,34.8,5.4,34.2,4.9z"/>
				<path class="st2" d="M36.9,2.6c0.8-0.1,0.5,1.2,0.9,1.6C37,4.3,37.2,3,36.9,2.6z"/>
				<path class="st2" d="M34.8,7.3c0.1,0.7-1.2,0.3-1.6,0.6C32.7,6.9,34.3,7.7,34.8,7.3z"/>
				<path class="st2" d="M42.4,13.4c-0.8,1.1-1.6,0.9-2.4,1.1c0-0.9,1.3-0.1,1.8-1.1c0.6-0.8-0.1-1.7,0-2.6c0.7-1.1,0.5-2.2,1.2-3.3
					c-0.5-0.3,0-0.6-0.3-1C41,4.7,39.3,5,37.7,5.3c-0.9,0.9-1.1,0.8-1.8,1.7c-0.4,0.8-0.3,1.7,0,2.6c1.4,1.7,3.6,1.9,4.4,3.9
					c-1.2-1-3-2.3-4.6-3.4c-0.8-1.8-0.4-3.6,1.3-4.8c1.3-0.9,4.1-0.8,5.6,0.5c0.5,0.4,0.1,0.9,0.6,1.3c-0.1,1.3-0.8,2.5-1,3.8
					C41.9,11.7,42.7,12.6,42.4,13.4z"/>
				<path class="st2" d="M40.7,2.3c0.3,0.6,0,1.2-0.2,1.8C40.1,3.5,40.4,2.9,40.7,2.3z"/>
				<path class="st2" d="M33.8,11c-0.3-0.4,0.7-1,1-0.9C35,10.7,34,10.3,33.8,11z"/>
				<path class="st2" d="M37,8.8c0.3-0.3,0.7-0.6,1-0.9c0.6,0.9,0.8,0.5,1.1-0.2c0.2,0.7,1.2,0.7,1,0c1.7,0.4-0.1,2.1,0.8,3
					c-1.1-0.1-0.3-1.6-0.3-2.2c-0.4,0.1-0.9,1.1-1.1-0.2c-0.5,1.1-0.8,0.4-1.6,0c-0.9,0.9,0.9,1.5,1.4,1.8c0.7,0.6,1.3,1.3,1.6,1.9
					c-0.7,0.4-0.6-0.4-0.8-0.8c-0.9-1-1.8-1.1-2.7-1.8C37.5,9.2,37.2,9,37,8.8z"/>
				<path class="st2" d="M34.5,13.1c0.4-0.6,0.9-0.6,1.3-0.9C36,12.4,34.9,13.8,34.5,13.1z"/>
				<path class="st2" d="M43.1,5c-0.2-0.5,1-1.3,1.3-1.3C44.6,4.5,43.5,4.3,43.1,5z"/>
				<path class="st2" d="M44.4,7.3c-0.3-0.2,0.7-1.4,1-0.6C45,7.1,44.7,6.7,44.4,7.3z"/>
				<path class="st2" d="M43.9,9.7c-0.1-0.7,1.1-0.5,1.4,0.2C44.8,10.7,44.3,9,43.9,9.7z"/>
				<path class="st2" d="M40.8,15.6c0.2-0.6,1.8-0.9,2.1-2.1C43.1,14.7,41.7,15.4,40.8,15.6z"/>
				<path class="st2" d="M43.2,14.8c0.4,0.9-1.2,1.6-1.8,1.7c-0.5-0.9,0.7-0.4,1.1-0.8C43.1,15.4,42.7,15.1,43.2,14.8z"/>
				<path class="st2" d="M42.2,17.7c-0.3-0.4,0.7-1,1-0.9C43.4,17.4,42.4,17.1,42.2,17.7z"/>
			</g>
			<g>
				<path class="st2" d="M14.6,20.2c-0.1,1.7,1.5,4,2,5.8c-0.3-0.3-1.1,0.7-1.3-0.1c-0.4-0.2-0.8-0.4-1.2-0.5
					c-1.2,0.3-1.6,1-1.5,1.8c-0.3,0.2-0.5-0.1-0.9,0.2c-1.3-1.9-0.9-4.6-0.3-6.4C12.7,20.2,13.6,20.5,14.6,20.2z M12,21
					c-0.7,1.7-0.9,3.7,0,6.1c1-0.2,0.3-1.1,0.9-1.5c0.5-0.1,1-0.1,1.6-0.6c0.7-0.1,1,1.1,1.8,0.7c-0.2-1.5-2-3.7-1.8-5.1
					C13.5,20.9,12.8,20.6,12,21z"/>
				<path class="st2" d="M15.9,19.1c0.9-1.1,2.8-0.6,3.8,0c0.6,0.8,0.4,1.4,0.4,2.1c1.3,0.6,1.7,1.9,1,2.9c-0.7,1.1-2.6,1.4-3.5,1.6
					c-0.8-2.1-1.8-4.3-2-6.4c0.8,0.4,0.4,1.9,1.1,2.8c0.3,1,0.6,2,1,3c1.4,0.4,3.9-1.2,3.3-2.8c-0.4-0.6-0.8-1-1.4-0.9
					c-0.2-0.6,0.7-1,0.2-1.7C18.7,18.4,17.2,18.9,15.9,19.1z"/>
				<path class="st2" d="M12.3,22.3c1,0.1,2.1,0.1,2.2,1.5c-0.3,0.6-1.5,1-2.1,1C11.8,23.8,12.4,23.1,12.3,22.3z M12.7,24.5
					c0.5-0.4,0.7,0,1.2-0.4c-0.1-0.2,0.1-0.4,0.2-0.6C13.5,21.7,11.8,23.2,12.7,24.5z"/>
				<path class="st2" d="M18.3,20c0.7,0.7-0.9,1.5-1.2,0.5C17.2,20.1,17.9,19.8,18.3,20z M17.9,20.3c-0.2,0.2-0.5-0.1-0.4,0.2
					C17.7,20.7,18.1,20.5,17.9,20.3z"/>
				<path class="st2" d="M25.7,17c0.1,0.7,0.2,1.5-1,2c-0.6-0.3-0.4-0.6-1-1.1c-1.1,0.7-1.1,1.5-0.6,2.5c0.8,0.8,2.2-1.4,3-0.5
					c0.6,1.1-0.8,1.8-1.9,2.6c-2.5,0.5-4.1-2.9-3.7-5C21.6,15.2,24.2,15.7,25.7,17z M22.3,16.2c-3.5,1.9,0,7.3,2.7,5.4
					c0.3-0.2,1-0.9,0.8-1.5c-1-0.3-2.3,1.6-3.1,0.3c-0.2-1-0.3-2,0.7-2.8c0.7-0.4,1.1,0.7,1.7,0.9c0.7-0.3,0.2-0.9,0.4-1.3
					C24.4,16.3,23.3,16.3,22.3,16.2z"/>
				<path class="st2" d="M18,22.6c0.8-0.3,1.5-0.4,2.1,0.4c-0.1,0.6-1.1,0.9-1.6,1.1C17.9,23.5,18.1,23.1,18,22.6z M18.7,23.6
					c0.3-0.2,0.6-0.4,0.9-0.6c-0.4-0.5-0.8-0.5-1.4-0.1C18.4,23.2,18.5,23.4,18.7,23.6z"/>
			</g>
			<path class="st2" d="M7.8,24.8c1.3,1,0.9,2.2,1.8,3.2c0.1,1.5,0.9,3,1.8,4.5c0.5,1.5,0.7,3,1.4,4.5c-0.2,1.1-0.4,2.2-0.6,3.3
				c-1.1-0.7-2.1-1.9-2.8-2.3c-0.3-2-1.5-4-1.9-6c-0.9-1.9-1.5-3.9-2.2-5.8c-0.2-0.1-0.1-0.3-0.3-0.4C6,24.8,6.9,24.6,7.8,24.8z
				 M7.8,31.8c0.1,1.1,0.7,2.1,1,3.2c0.3,0.5,0.3,1,0.6,1.6c-0.1,0.7,0.4,1,1,0.6C9,34.1,8.1,31,7,27.9c-0.4-0.5-0.3-0.4-0.9-0.7
				c0.8-0.2,1.6-0.6,2.5-0.7c-0.1-0.5-0.3-1-0.7-1.4c-0.8-0.1-1.6,0-2.4,0.6C6.2,27.7,6.9,29.7,7.8,31.8z M7.1,27.8
				c0.5,0.8,0.6,1.6,1,2.3c0,0.9,0.7,1.6,0.7,2.5c0.7,1.2,1,2.5,1.4,3.7c0.4,0.2,0.3,1.3,0.9,0.7c0.5,0.1-0.2-0.8-0.2-1
				c-0.1-0.5-0.3-0.9-0.6-1.3c-0.1-0.9-0.6-1.7-0.8-2.6c-0.2-0.7-0.3-1.3-0.5-1.9c-0.4-1.2-0.7-2.2-1.4-3.2
				c-0.3,0.2-0.5,0.1-0.8,0.4C7,27.5,7.1,27.6,7.1,27.8z M8.2,27.4c0.7,1.6,1.3,3.3,1.7,5c0.5,0.8,0.5,1.7,0.9,2.5
				c0.4,0.9,0.4,1.8,1.5,2.3c0.3-0.9-0.4-1.7-0.5-2.5c-0.2-0.8-0.4-1.7-0.9-2.5c-0.9-1.7-1.4-3.3-2-5c-0.3,0.3-0.1-0.3-0.5-0.4
				c-0.1,0.2-0.3,0-0.4,0.3C8.1,27.1,8.2,27.3,8.2,27.4z M11.5,39.2c0.2-0.1,0.4-0.2,0.6-0.2c0.3-0.6,0.6-1.2,0.3-1.7
				c-0.1,0.1-0.2,0.1-0.4-0.1c-0.2,0.2-0.1,0.4-0.3,0.6c-0.3-0.6-0.5,0.1-0.8,0c-0.3-0.3-0.7-0.6-0.9-0.1
				C10.1,38.2,11,38.7,11.5,39.2z M11.7,39.4C12.4,40.1,12.2,38.9,11.7,39.4L11.7,39.4z"/>
			<g>
				<path class="st2" d="M20.3,2.2c1,0,1,2.5,0,2.5C20.7,4.1,20,3.2,20.3,2.2z"/>
				<path class="st2" d="M17.5,2.4c1.2,0.2,1.6,1.8,1.1,3C17.9,4.7,17.3,3.9,17.5,2.4z M18.4,4.4c0-0.7,0-1.4-0.7-1.4
					C17.8,3.7,18.1,4.1,18.4,4.4z"/>
				<path class="st2" d="M23.7,2.6c0,1.5-0.6,2.2-1.8,2.5C21.9,3.8,21.9,2.3,23.7,2.6z M22.5,4.4C22.7,3.9,24,3.2,23,2.8
					C22.6,3.1,21.9,4,22.5,4.4z"/>
				<path class="st2" d="M15.2,4.7c1.2,0.1,2,0.6,2.3,1.6C16.4,6.8,15.5,5.8,15.2,4.7z M17.1,5.8c-0.4-0.2-0.7-0.5-1.1-0.7
					C15.8,5.7,16.9,6.3,17.1,5.8z"/>
				<path class="st2" d="M26.4,5.8c-0.2,0.8-1.7,0.3-2.5,0.5C23.8,4.8,26,4.8,26.4,5.8z M24.3,6c0.5-0.1,1.6,0.4,1.4-0.5
					C25.1,5.6,24.4,5.4,24.3,6z"/>
				<path class="st2" d="M22.3,5.8c-0.9-0.2-1.1,0.4-1.8,0.5c0-1,1.4-0.6,2.3-0.7c0.2,0.6,1,0.8,1.1,1.4c0.6,2.2-1.1,4.2-3.2,4.3
					c-1.7-0.2-2.5-1.3-2.7-3c0.1-1.3,0.7-2.1,1.4-3c0.4-0.1,0.4,0.2,0.5,0.5c-0.9,0.1-1,1.2-1.4,1.8c0,0.5,0,0.9,0,1.4
					c0.6,2.9,5.6,2,5.2-1.1C23.6,6.8,22.9,6.3,22.3,5.8z"/>
				<path class="st2" d="M17.1,8.5c-0.1,0.9-1.5,0.6-2.5,0.7c-0.1-1.1,0.7-1.2,1.8-1.1C16.4,8.9,17,8.1,17.1,8.5z M15,9
					c0.9,0.2,1.6-0.5,0.7-0.7C15.8,8.8,14.7,8.2,15,9z"/>
				<path class="st2" d="M24.6,8.8c0.7,0.6,2.1,0.5,2,1.8c-0.9,0.5-2.4-0.1-2.5-1.1c0.8,0.1,0.7,1.1,1.8,0.9
					C26.5,9.7,24.4,9.7,24.6,8.8z"/>
				<path class="st2" d="M23.2,11.5c0.9,0.1,1.4,1.8,0.9,2.5C23.2,13.8,23.3,12.5,23.2,11.5z"/>
				<path class="st2" d="M18.7,11.7c0,1.3-1,2.5-1.8,2.3C16.8,12.6,17.5,11.9,18.7,11.7z M17.5,13.5c0-0.5,1.1-1,0.5-1.4
					C17.9,12.6,16.8,13.1,17.5,13.5z"/>
				<path class="st2" d="M21.2,12.6c0.9,0.5,0.4,2.8-0.5,3C20.3,14.5,20.4,13.2,21.2,12.6z M21.2,14.2c0-0.3,0-0.9-0.2-0.5
					C20.9,14.1,21,14.6,21.2,14.2z"/>
			</g>
			<g>
				<path class="st2" d="M26.2,40.5c0.1,1-0.3,1.4-0.7,1.9c0.9,0.6,1.9,1.2,1.5,3c-0.7,1-3.9,1.3-3.8-0.6c0.2-0.2,0.5-0.1,0.6-0.3
					c0.7-0.3,0.1,0.7,0.5,0.6c0.5-0.1,1.1-0.1,1-0.9c-0.1-0.4-1.1-0.1-1.5-0.3c-0.1-0.4-0.3-0.7-0.3-1.2c-0.1-0.8,0.8-0.4,0.9-1.1
					c-0.7-1.1-0.8,0.7-1.8,0.5c0.2-0.9-0.3-1.1,0.1-1.7C23.5,39.7,25.7,39.5,26.2,40.5z M22.9,41.4c0.3,0.5,0.6-0.8,1.4-0.5
					c0.3,0.2,0.6,0.3,0.5,0.8C24.7,42.3,24,42,24,42.7c-0.2,0.5,0.2,0.5,0.1,1c0.6-0.2,1.8-0.2,1.7,0.7c-0.1,0.7-0.7,0.8-1.2,1.1
					c-0.6,0.1-0.5-0.6-0.9-0.6c-0.2,0.9,0.6,1,1.3,1.3c0.9-0.2,1.9-0.3,2-1.4c-0.2-1.2-1.1-1.7-2.2-2.1c0.6-0.4,1.1-0.8,1.3-1.7
					C25.6,39.6,22.8,39.7,22.9,41.4z"/>
				<path class="st2" d="M20.7,45.3c0.4,0,0.9,0.1,1.3,0.1c-0.1,0.7,0,1.1,0.1,1.6c-0.9,0.3-2.2,0.3-3.5,0.2c0.1-0.8-0.4-1-0.3-1.8
					c0.7-0.4,1.6-0.7,2-1.4c0-0.5-0.1-0.8-0.5-1c-0.6-0.1-0.9,0.2-1,0.7c-0.5-0.2-0.7-0.6-1.1-0.8c0.3-2.6,4.4-1.6,4,0.8
					C21.6,44.4,21.1,44.7,20.7,45.3z M21.4,43.6c0.7-2.3-3.8-2.8-3.1-0.6c0.8,0.2,0.8-0.6,1.6-0.5c0.1,0.4,0.7,0.4,0.7,0.8
					c0.2,1.9-1.5,1.4-2.1,2.4c0.3,0.2,0.4,0.5,0.3,1c0.9,0,2.2,0.3,2.9,0c0.2-0.6-0.3-0.6-0.1-1.2c-0.6,0-1,0.3-1.8,0.1
					C20.4,44.9,21.2,44.6,21.4,43.6z"/>
				<path class="st2" d="M16.1,44.3c0.2,0.3,0.8,0.3,1.1,0.5c0,0.4-0.1,0.9-0.1,1.3c-1.4,0.1-2.3,0.2-3.7,0
					c-0.1-0.6,0.4-0.5,0.3-1.1c0.4,0.1,0.7,0,1-0.1c0.2-0.9-0.2-1.3-0.1-2.1c-0.4-0.5-0.8,0.4-1.2-0.1c0.1-0.6-0.4-0.6-0.3-1.2
					c0.9-0.1,1.8-1.3,2.6-0.8C16.1,41.6,15.8,43.2,16.1,44.3z M15.5,40.9c0-0.2-0.2-0.2-0.4-0.2c-0.4,0.6-1.6,0.3-1.5,1.5
					c0.3,0.4,0.5-0.1,1.2,0.1c0,1,0.2,1.7,0.2,2.7c-0.3,0.3-1.3-0.1-1.2,0.7c0.8,0.4,2.9,0.5,3.1-0.4c-0.1-0.6-1.2-0.4-1.3-1
					C15.7,43.1,15.7,42,15.5,40.9z"/>
			</g>
			<path class="st2" d="M26.6,27.8c-0.8,0.2-1,0.7-1.5,1.1c0.8,0.4,0.9-1.1,1.8-0.7c-0.5,0.9-1.5,1.7-2.3,2.6
				c-0.8,0.8-1.5,1.8-2.3,2.6c-0.6-1.7-3.1-0.8-4.1,0.3c-1.3-1.7-3.4,1.1-4.5,1.7c0.4-1.2,1.9-1.9,3.2-2.7c-1.3-0.2-2.7,1.1-3,1.9
				c-0.7-0.5,1-1.4,1.4-2c0.6-0.4,1-0.2,1.5-0.3c-1.2-1.1-2.5,0.9-3.4,1.5c0.8-2.8,4.1-4.4,5.4-6.9c0.4-0.2,0.8-0.3,1.2-0.5
				c0.7,0.4,1.7,0.1,2.4,0.8c1-0.4,1.7-0.2,2.6-0.5C25.5,27.3,26.4,26.7,26.6,27.8z M21.8,27.2C21,27,20.1,26.8,19.1,27
				c-1,1.8-2.9,3.2-4,5c1.5-0.9,2.1,0.3,3.6-0.4c0.9-1.1,1.8-2.1,2.3-3.3c-0.5-0.3-1.6,0.5-1.9-0.2c0.6,0.1,1.6-0.6,1.9,0.2
				C21.5,28,21.6,27.6,21.8,27.2z M21.9,27.6c-0.2,0.6-0.7,1.1-1,1.6c-0.3,0.6-1.1,1-1,1.8c1.2-0.6,1.7,0.3,2.5,0.5
				c0.9-1.4,1.9-2.7,3.5-3.8C25.1,26.5,23.3,27.5,21.9,27.6z M20.6,31.6c0.5,0.1,1.5,1.3,1.8,0.5c-0.8-0.5-2.2-1.5-3.1-0.3
				C19.8,31.4,20,32,20.6,31.6z M18.5,33.1C19.4,32.2,17.6,32.8,18.5,33.1L18.5,33.1z M23.5,31.4c0.3-0.3,0.7-0.9,0.1-0.3
				C22.9,31.8,23.2,31.7,23.5,31.4z"/>
			<g>
				<path class="st2" d="M45.7,42.8c-2.8-3,3.1-4.8,4.4-7.1c-0.2-0.2-0.3-0.4-0.2-0.6c-0.9-0.9-1.7-1.1-2.7-0.6c-1.2,1,1,2.3,0,3.3
					c-1.8,0-2.2-2.5-1.7-3.6c1.9-2.1,3.8-2.1,5.5-0.8c1.2,1.7,0.8,3.3-0.1,4.8c-1,0.7-1.9,0.6-2.8,1.4
					C46.8,40.7,47.2,41.8,45.7,42.8z M47.5,39.5c1.1-0.7,2.1-0.8,3.2-1.7c0.7-1,0.5-2,0.6-3.1c-1.9-3.2-5.6-1.2-5.7,1.4
					c0.4,0.4,0.7,0.8,1.1,1.2c0.9-0.5-0.6-1.1-0.3-1.6c-0.2-0.5,0.1-1,0.5-1.5c1.5-1.5,4.2,0.9,3.3,2.6c-1.8,1.5-5.6,3.4-4.6,5.5
					C46.7,42,46.4,40.3,47.5,39.5z"/>
				<path class="st2" d="M45.8,45c-0.3,0.3-0.7,0.6-1,0.9c-0.5-0.3-1-0.1-1.5-0.9c0.1-0.2,0.2-0.5,0.1-0.8
					C44.5,42.9,45.9,43.7,45.8,45z M44.1,43.9c-1.1,0.8,0.6,1.9,1.3,1.1C45,44.5,44.5,44.7,44.1,43.9z"/>
			</g>
			<path class="st2" d="M32.8,19.2c0.6-0.5,0.3-0.3,0.9-0.8c0.7-0.6,1.4-1.1,2.1-1.6c0.2-0.2,0.4-0.4,0.7-0.6
				c0.2-0.2,0.6-0.5,0.9-0.6c0.2,0.2,0.3,0.4,0.4,0.6c0.2,0.2,0.5,0.6,0.7,0.8c0.8,0.8,1.3,1.5,1.9,2.4c0.4,0.7,1.2,1.2,1.7,1.8
				c0.3,0.3,0.5,0.5,0.3,0.9c-0.5,0.8-1.1,1.5-2.1,1.5c-0.9,0-1.4-0.6-1.2-1.3c0.1-0.4,0.4-0.8,0.8-1.1c0.3-0.2,1.4-0.3,1.9,0.1
				c-0.1-0.3-1.5-1.3-1.2-1.1c0,0-0.5-0.4-1.2-1.3c-0.4-0.5-0.6-0.7-1-1.3c-0.4,0.2-0.7,0.5-1,0.8c-0.4,0.3-0.8,0.5-1.2,0.8
				c-0.3,0.2-0.5,0.4-0.8,0.6c-0.3,0.2-0.7,0.3-0.6,0.7c0.1,0.3,0.5,0.8,0.7,1.1c0.5,0.7,1.1,1.3,1.6,2.1c0.4,0.6,1,1.1,1.4,1.7
				c0.1,0.2,0.3,0.5,0.3,0.8c0,0.6-1.1,1.1-1.6,1.3C37,27.9,36.7,28,36.3,28c-0.4,0-0.7-0.3-0.9-0.5c-0.3-0.4-0.6-0.7-0.3-1.3
				c0.9-1.8,2.6-0.1,3.3-0.3c-0.3-0.5-1.7-2-2-2.5c-0.3-0.4-0.7-0.7-0.9-1.1c-0.2-0.3-0.5-0.7-0.7-0.9c-0.7-0.8-1.2-1.4-1.8-2.1
				L32.8,19.2z M33.8,19.3c0.1,0.2,0.2,0.2,0.3,0.4c0.2,0.3,0.5,0.5,0.5,0.6c0.2-0.2,0.3-0.2,0.5-0.5c0.3-0.3,0.7-0.6,1-0.8
				c0.4-0.3,0.5-0.6,0.9-0.8c0.3-0.2,0.6-0.4,0.9-0.6c-0.2-0.2-0.6-1-0.8-1.1c-0.5,0.4-1.1,0.9-1.6,1.3c-0.7,0.5-1.3,1-1.9,1.5
				 M38.2,26.2C38,26,37.7,26,37.4,25.9c-0.2,0-0.4-0.1-0.6-0.1c-0.4,0-0.4,0.1-0.6,0.4c-0.5,0.5-0.3,1.4,0.3,1.4
				c0.5,0,1.2-0.3,1.5-0.6c0.2-0.1,0.3-0.2,0.3-0.4C38.3,26.5,38.3,26.2,38.2,26.2 M41.6,21.8c-0.8-0.3-1-0.6-1.7,0.1
				c-0.3,0.3-0.3,0.8-0.1,1c0.3,0.3,0.3,0.3,0.7,0.3c0.4,0,0.7-0.1,1.1-0.3c0.3-0.2,0.5-0.4,0.6-0.7c0-0.1,0-0.2,0-0.2"/>
			<g>
				<g>
					<path class="st2" d="M40.4,39.9l0.9,0.8c1.4,3.4,0.9,5.5-0.9,7c-3.5,1.6-7-1.3-6.7-4.4c0-1.6,0.4,1.8,1.3,2.8
						c0.6,1,2,1.7,4.5,1.4c0.2,0,0.3-0.2,0.5-0.2c0.7,0,0.8-0.8,1.3-1.1c1-3.8-0.1-6.1-3.6-6.6c-1.8,0.2-3.1,0.9-3.6,2.7
						c-0.9-0.4,0.6-1.7,1-2.2c1.3-0.4,2-1,3.6-0.9L40.4,39.9z M39.4,39.4c-0.1,0.1,0,0.3,0.2,0.2C39.7,39.5,39.6,39.3,39.4,39.4z"/>
				</g>
				<path class="st3" d="M35.9,44.9l-0.1-0.6l-0.4,0.6l0.2,0.8l0.2-0.2c0,0,0.2,0.1,1,0.5c0.8,0.4,1.3,0.5,1.8,0.3
					c0.4-0.1,1.2-0.5,1.3-0.8c0.1-0.2,0.3-0.9,0.3-1c0-0.2,0.1-0.9,0.1-0.9l0.4,0c0,0-0.1-0.5-0.3-0.5c-0.2-0.1-0.6-0.1-0.6-0.1
					l0.1,0.3c0,0,0.2,0.1,0,0.6c-0.2,0.5-0.2,0.9-0.4,1.2c-0.2,0.3-0.8,0.5-1,0.5c-0.3,0-1,0-1.2,0c-0.2-0.1-0.6-0.1-0.8-0.2
					C36.3,45.3,35.9,44.9,35.9,44.9z"/>
				<path class="st2" d="M36,41.9c0,0,0.4,0,0.4,0.1c0,0.1,0.1,0.6,0.1,0.7c0.1,0.1,0.2,0.3,0.4,0.3c0.2,0,0.1,0,0.2-0.2
					c0-0.2,0.1-0.3,0-0.5c-0.1-0.2-0.2-0.4-0.4-0.4c-0.2-0.1-0.2-0.2-0.4-0.2C36.2,41.7,36,41.9,36,41.9z"/>
				<path class="st2" d="M37.8,41.7c0,0,0.4,0,0.4,0.1c0,0.1,0.1,0.6,0.1,0.7c0.1,0.1,0.2,0.3,0.4,0.3c0.2,0,0.1,0,0.2-0.2
					c0-0.2,0.1-0.3,0-0.5c-0.1-0.2-0.2-0.3-0.4-0.4c-0.2-0.1-0.2-0.2-0.4-0.2C38,41.5,37.8,41.7,37.8,41.7z"/>
			</g>
			<path class="st3" d="M46.5,20.8c-0.4,0.5-0.3,1.5-0.2,2.1l0,0.1c-1.8-1.5-3.9,0.8-3.3,2c0.4,0.9,1.5,1.1,1.5,1.1
				c-0.3,0.4-0.9,1-1,1.5c-0.5,1.8,1,2.4,2.5,2.1c0.5-0.1,1.5-0.7,1.9-1c0,0.1,0,0.2,0,0.3c-0.1,1.3,0.9,2.4,2,3
				c1.5,0.8,2.9-0.8,2.3-2.2c0.1-0.2-0.2-0.4-0.1-0.6c0.5,0.1,0.7,0.3,1.2,0.1c0.3-0.1,0.6,0,0.9-0.3c0.6-0.6,0.7-0.9,0.8-1.7
				c0.1-0.7-0.7-1.3-1.3-1.5c-0.1,0-0.2,0-0.3-0.1l0.6-0.8c0.3-0.4,0.4-1.9,0-2.3c-0.3-0.4-1.6-0.4-2-0.3c-0.4,0.1-1,0.5-1.4,0.7
				l0,0c0.2-0.5,0.1-1.4-0.1-1.8C49.7,19.9,47.4,19.7,46.5,20.8z M44.5,25.8c-0.4-0.2-1.2-0.4-1.2-1c-0.1-1.1,1.2-2.3,2.1-1.9
				c0.1,0,0.4,0.2,0.5,0.3c0.4,0.3,0.9,0.8,1.3,1.2c0.2,0.2,0.8,0.5,0.7,0.8c0,0.1-0.4,0.7-0.5,0.9l-0.8-0.2c0-0.1-0.1-0.1-0.1,0
				C45.9,25.6,45.3,26.1,44.5,25.8z M48,27c-0.2-0.2-0.2-0.9-0.1-1.2c0.1-0.1,0.5-0.8,0.6-0.8c0.5-0.4,1.3,0.4,1.4,0.9l0.2,0.5
				c0.1,0.2,0.1,0.7-0.1,0.8c-0.1,0.1-0.3,0.1-0.3,0.2c-0.2,0.2-0.5,0.1-0.8,0l0,0l-0.2,0c0-0.1-0.2-0.2-0.3-0.2
				C48.3,27.4,48.1,27.1,48,27z M44.8,26.3c0.2-0.1,1.9-0.4,2.6,0.1c0.1,0.3,0.2,0.6,0.4,0.9c0.2,0.2,0.5,0.2,0.2,0.6
				C46.1,30.4,41.4,29.8,44.8,26.3z M51.7,29.3c0.2,0.6,0.4,1.8-0.3,2.2c-0.9,0.7-2.6-0.6-2.9-1.4l0,0c0-0.2-0.2-0.4-0.1-0.7
				c-0.3-0.4-0.1-1.3,0.1-1.7c0.5,0.1,1,0.2,1.4-0.1C50.4,27.8,51.5,28.8,51.7,29.3z M54,26.1c0.2,0.2,0.6,0.4,0.7,0.7
				c0.2,0.5-0.2,1.6-0.7,1.9c-0.8,0.6-2.2,0-2.8-0.7l-0.1,0l-0.2-0.2l0-0.1c-0.3-0.1-0.5-0.3-0.7-0.5c0.3-0.3,0.1-0.8,0.1-1.2
				c0.4-0.2,1.9-0.2,2.2-0.3c0.3,0,0.7,0,0.9,0.1C53.7,25.8,53.8,26.1,54,26.1z M53.6,22.7c0.4,0.2,0.4,1,0.3,1.4
				c0,0.3-0.4,1-0.7,1.1c-0.6,0.4-2.2,0.6-2.9,0.7c-0.1-0.3-0.3-0.6-0.5-0.9c0.1-0.3,0.3-1,0.5-1.3C50.8,23,52.7,22.2,53.6,22.7z
				 M50.1,21.5c0.3,1.2-0.1,1.7-0.5,2.9c-0.1,0.1-0.1,0.2-0.2,0.3c-0.3,0-0.8-0.2-1.1,0c-0.2-0.1-0.4-0.2-0.5-0.3
				c-0.1-0.4-0.6-0.5-0.7-0.9l-0.1,0c-0.4-0.6-0.7-1.8-0.3-2.5C47.3,20,49.8,20.2,50.1,21.5z"/>
			<g>
				<path class="st2" d="M40.6,35.8c-1.5,0.9-5,1.6-6.7,0.2c-2-3.5,1.2-7,4.5-7.4c-0.7,0.8-1.8,1.2-2.6,1.9
					c-0.7,1.3-1.7,2.4-1.7,4.5c0,0.2,0.2,0.2,0.2,0.5c0.1,0.7,0.9,0.5,1.2,0.9c4.1,0.1,6.5-1.5,6.9-5c-0.3-1.6-1-2.8-2.9-2.9
					c0.4-1,1.8,0.2,2.4,0.5c0.5,1.2,1.3,2,1.2,3.8c-1.3,3.3-4,5.1-8.3,5.2c-0.5-0.3-1-0.6-1.4-1c0-0.5,0-0.9,0-1.4
					C33.9,39.2,39.5,37.4,40.6,35.8z M34,34.4c-0.2-1.6,1.3-2.6,1-3.6C34.5,31.8,33.1,33,34,34.4z M42.8,33.2
					c-0.1-0.1-0.4,0.1-0.2,0.2C42.6,33.5,42.9,33.4,42.8,33.2z"/>
				<path class="st2" d="M38.2,29.7c0.5,0.3,0.9,0.7,1,1.4c-0.6,0.1-0.3-0.7-0.7-0.7c-0.7,0.6-0.6,1.9-1.2,2.6
					c0.4,0.6,1.3,0.6,1.9,1c0.6-0.1-0.3-0.4,0-1c0.6,0.3,0.9,1,1.4,1.4c-0.5,0.4-1.4,1.1-1.9,0.7c0.2-0.3,0.5-0.4,0.9-0.5
					c-0.7-0.7-2.2-0.7-2.9-1.4c0.3-0.6,0.6-1.2,0.7-1.9c0-0.3-0.2-0.1-0.2,0C36.6,30.6,38.1,30.3,38.2,29.7z"/>
			</g>
		</g>
	</g>
	<g>
		<path class="st3" d="M69.9,35.5h0.8l3.7,8.1h-1l-0.9-2.1h-4.4l-1,2.1h-0.9L69.9,35.5z M72.1,40.7l-1.8-4.1l-1.8,4.1H72.1z"/>
		<path class="st3" d="M74.8,39.6L74.8,39.6c0-2.3,1.7-4.2,4.1-4.2c1.5,0,2.3,0.5,3.1,1.3l-0.6,0.7c-0.7-0.6-1.4-1.1-2.5-1.1
			c-1.8,0-3.1,1.4-3.1,3.3v0c0,1.9,1.3,3.3,3.1,3.3c1.1,0,1.8-0.4,2.6-1.2l0.6,0.6c-0.8,0.8-1.8,1.4-3.2,1.4
			C76.5,43.7,74.8,41.9,74.8,39.6z"/>
		<path class="st3" d="M83.7,35.6h0.9v3.6h4.6v-3.6h0.9v8h-0.9V40h-4.6v3.6h-0.9V35.6z"/>
		<path class="st3" d="M92.4,35.6h0.9v8h-0.9V35.6z"/>
		<path class="st3" d="M95.8,35.6h5.8v0.8h-4.9v2.7h4.4V40h-4.4v2.8h5v0.8h-5.9V35.6z"/>
		<path class="st3" d="M102.7,35.6h1l2.9,6.9l2.9-6.9h1l-3.5,8.1h-0.8L102.7,35.6z"/>
		<path class="st3" d="M111.7,35.6h5.8v0.8h-4.9v2.7h4.4V40h-4.4v2.8h5v0.8h-5.9V35.6z"/>
		<path class="st3" d="M119.6,35.6h0.9l2.9,4.4l2.9-4.4h0.9v8h-0.9v-6.5l-2.9,4.3h0l-2.9-4.3v6.5h-0.9V35.6z"/>
		<path class="st3" d="M129.5,35.6h5.8v0.8h-4.9v2.7h4.4V40h-4.4v2.8h5v0.8h-5.9V35.6z"/>
		<path class="st3" d="M137.3,35.6h0.8l5.1,6.4v-6.4h0.9v8h-0.7l-5.2-6.6v6.6h-0.9V35.6z"/>
		<path class="st3" d="M148.4,36.4h-2.7v-0.8h6.3v0.8h-2.7v7.2h-0.9V36.4z"/>
		<path class="st3" d="M157.4,39.6L157.4,39.6c0-2.3,1.7-4.2,4.1-4.2c1.5,0,2.3,0.5,3.1,1.3l-0.6,0.7c-0.7-0.6-1.4-1.1-2.5-1.1
			c-1.8,0-3.1,1.4-3.1,3.3v0c0,1.9,1.3,3.3,3.1,3.3c1.1,0,1.8-0.4,2.6-1.2l0.6,0.6c-0.8,0.8-1.8,1.4-3.2,1.4
			C159.2,43.7,157.4,41.9,157.4,39.6z"/>
		<path class="st3" d="M166.6,35.6h5.8v0.8h-4.9v2.7h4.4V40h-4.4v2.8h5v0.8h-5.9V35.6z"/>
		<path class="st3" d="M174.2,35.6h0.8l5.1,6.4v-6.4h0.9v8h-0.7l-5.2-6.6v6.6h-0.9V35.6z"/>
		<path class="st3" d="M185.2,36.4h-2.7v-0.8h6.3v0.8h-2.7v7.2h-0.9V36.4z"/>
		<path class="st3" d="M190.5,35.6h5.8v0.8h-4.9v2.7h4.4V40h-4.4v2.8h5v0.8h-5.9V35.6z"/>
		<path class="st3" d="M198,35.6h3.5c1,0,1.8,0.3,2.3,0.8c0.4,0.4,0.6,1,0.6,1.6v0c0,1.3-0.9,2.1-2.2,2.3l2.5,3.3h-1.1l-2.3-3.1h0
			h-2.3v3.1H198V35.6z M201.4,39.7c1.2,0,2.1-0.6,2.1-1.7v0c0-1-0.8-1.6-2.1-1.6h-2.5v3.3H201.4z"/>
		<path class="st3" d="M205.7,42.4l0.6-0.7c0.8,0.8,1.6,1.1,2.8,1.1c1.1,0,1.8-0.6,1.8-1.4v0c0-0.7-0.4-1.2-2.1-1.5
			c-1.8-0.4-2.7-1-2.7-2.3v0c0-1.3,1.1-2.2,2.6-2.2c1.2,0,2,0.3,2.8,1l-0.5,0.7c-0.7-0.6-1.5-0.9-2.3-0.9c-1,0-1.7,0.6-1.7,1.3v0
			c0,0.8,0.4,1.2,2.2,1.6c1.8,0.4,2.6,1,2.6,2.3v0c0,1.4-1.1,2.3-2.7,2.3C207.7,43.7,206.7,43.3,205.7,42.4z"/>
	</g>
	<g>
		<path class="st3" d="M66.5,6.5h4.1c3.6,0,5.2,2.4,5.2,5.4c0,1.6-0.6,3.1-1.5,4c1.9,1,2.8,2.9,2.8,5.2c0,3.2-1.8,5.8-5.6,5.8h-5
			V6.5z M68.6,15.2h2.1c2.5,0,3.2-1.5,3.2-3.4c0-1.9-1-3.4-3.2-3.4h-2.1V15.2z M68.6,24.8h2.9c2.5,0,3.6-1.7,3.6-3.8
			c0-2.1-0.8-3.8-3.6-3.8h-2.9V24.8z"/>
		<path class="st3" d="M82.1,12.6v2.5c1.1-1.4,3.3-2.4,4.2-2.4V15c-1.2,0-3.4,0.9-4.2,1.9v9.9h-2V13.5L82.1,12.6z"/>
		<path class="st3" d="M92.7,27.2c-3.5,0-5.2-2.5-5.2-7.1c0-4.6,1.7-7.1,5.2-7.1c1.2,0,2.3,0.4,3.1,1.3l2.2-1V24
			c0,1,0.3,1.6,0.9,1.6c0.2,0,0.5-0.1,0.7-0.2v1.3c-0.5,0.3-1.1,0.5-1.7,0.5c-1,0-1.7-0.6-1.9-1.5C95.2,26.6,94.1,27.2,92.7,27.2z
			 M92.7,25.2c1.4,0,2.6-0.8,3.3-2.1v-6.2c-0.6-1.3-1.8-2.1-3.3-2.1c-2.2,0-3.1,1.9-3.1,5.2C89.6,23.3,90.5,25.2,92.7,25.2z"/>
		<path class="st3" d="M102.6,9V6.5h2V9H102.6z M104.6,12.6v14.2h-2V13.5L104.6,12.6z"/>
		<path class="st3" d="M116.2,18.2c0-2.6-0.8-3.4-2.1-3.4c-1.3,0-2.9,0.7-3.7,1.4v10.6h-2V13.5l2-0.9v1.7c1-0.6,2.8-1.3,3.8-1.3
			c3.4,0,3.9,2.3,3.9,5.3v8.6h-2V18.2z"/>
		<path class="st3" d="M128.2,6.5h4.1c3.6,0,5.2,2.4,5.2,5.4c0,1.6-0.6,3.1-1.5,4c1.9,1,2.8,2.9,2.8,5.2c0,3.2-1.8,5.8-5.6,5.8h-5
			V6.5z M130.3,15.2h2.1c2.5,0,3.2-1.5,3.2-3.4c0-1.9-1-3.4-3.2-3.4h-2.1V15.2z M130.3,24.8h3c2.5,0,3.6-1.7,3.6-3.8
			c0-2.1-0.8-3.8-3.6-3.8h-3V24.8z"/>
		<path class="st3" d="M146.6,27.2c-3.5,0-5.2-2.5-5.2-7.1c0-4.6,1.7-7.1,5.2-7.1c1.2,0,2.3,0.4,3.1,1.3l2.2-1V24
			c0,1,0.3,1.6,0.9,1.6c0.2,0,0.5-0.1,0.7-0.2v1.3c-0.5,0.3-1.1,0.5-1.7,0.5c-1,0-1.7-0.6-1.9-1.5C149.1,26.6,147.9,27.2,146.6,27.2
			z M146.6,25.2c1.4,0,2.6-0.8,3.3-2.1v-6.2c-0.6-1.3-1.8-2.1-3.3-2.1c-2.2,0-3.1,1.9-3.1,5.2C143.5,23.3,144.4,25.2,146.6,25.2z"/>
		<path class="st3" d="M158.5,5.5v21.3h-2V6.5L158.5,5.5z"/>
		<path class="st3" d="M166.8,27.2c-3.5,0-5.1-2.5-5.1-7.1c0-4.6,1.7-7.1,5.1-7.1c1.2,0,2.3,0.4,3.1,1.3l2.2-1V24
			c0,1,0.3,1.6,0.9,1.6c0.2,0,0.5-0.1,0.7-0.2v1.3c-0.5,0.3-1.1,0.5-1.7,0.5c-1,0-1.7-0.6-1.9-1.5C169.2,26.6,168.1,27.2,166.8,27.2
			z M166.8,25.2c1.4,0,2.6-0.8,3.3-2.1v-6.2c-0.6-1.3-1.8-2.1-3.3-2.1c-2.2,0-3.1,1.9-3.1,5.2C163.6,23.3,164.6,25.2,166.8,25.2z"/>
		<path class="st3" d="M184.3,18.2c0-2.6-0.8-3.4-2.1-3.4c-1.3,0-2.9,0.7-3.7,1.4v10.6h-2V13.5l2-0.9v1.7c1-0.6,2.8-1.3,3.8-1.3
			c3.4,0,3.9,2.3,3.9,5.3v8.6h-2V18.2z"/>
		<path class="st3" d="M194.9,27.2c-3.3,0-5.4-2.4-5.4-7.1c0-5.1,2.3-7.1,5.6-7.1c3.1,0,4.3,2.1,3.9,4.5h-1.8
			c0.2-1.5-0.4-2.6-2.1-2.6c-1.9,0-3.5,1.2-3.5,5.2c0,3.4,1,5.2,3.8,5.2c1.2,0,2.9-0.7,3.9-1.7v2.2
			C198.3,26.4,196.7,27.2,194.9,27.2z"/>
		<path class="st3" d="M203.8,20c0,3.4,1.1,5.2,4,5.2c1.3,0,3.1-0.7,4.1-1.7v2.2c-1,0.6-2.6,1.4-4.5,1.4c-3.5,0-5.6-2.5-5.6-7.1
			c0-5,2.4-7.1,5.8-7.1c5.2,0,5,5,3.8,7h-7.5V20z M209.8,18c0.6-1.3,0.2-3.2-2.3-3.2c-1.7,0-3.1,0.8-3.6,3.2H209.8z"/>
		<g>
			<path class="st3" d="M217.9,15.1c0,1.2-1,2.2-2.2,2.2c-1.2,0-2.2-1-2.2-2.2c0-1.2,1-2.2,2.2-2.2C217,12.9,217.9,13.9,217.9,15.1z
				 M214,15.1c0,1,0.7,1.7,1.7,1.7c1,0,1.7-0.8,1.7-1.7c0-1-0.7-1.7-1.7-1.7C214.8,13.3,214,14.1,214,15.1z M215.4,16.2h-0.5V14
				c0.2,0,0.5-0.1,0.8-0.1c0.4,0,0.6,0.1,0.8,0.2c0.1,0.1,0.2,0.3,0.2,0.5c0,0.2-0.2,0.4-0.4,0.5v0c0.2,0.1,0.3,0.2,0.4,0.5
				c0.1,0.3,0.1,0.5,0.2,0.5h-0.5c-0.1-0.1-0.1-0.3-0.2-0.5c0-0.2-0.2-0.3-0.4-0.3h-0.2V16.2z M215.4,15h0.2c0.3,0,0.5-0.1,0.5-0.3
				c0-0.2-0.1-0.3-0.5-0.3c-0.1,0-0.2,0-0.3,0V15z"/>
		</g>
	</g>
</g>
</svg>
